<?xml version="1.0" encoding="UTF-8"?>
<svg width="28px" height="28px" viewBox="0 0 28 28" version="1.1" xmlns="http://www.w3.org/2000/svg" xmlns:xlink="http://www.w3.org/1999/xlink">
    <!-- Generator: Sketch 53.2 (72643) - https://sketchapp.com -->
    <title>microsoft</title>
    <desc>Created with Sketch.</desc>
    <g id="Slides" stroke="none" stroke-width="1" fill="none" fill-rule="evenodd">
        <g id="Slide-1" transform="translate(-690.000000, -965.000000)" fill-rule="nonzero">
            <g id="Plaforms" transform="translate(437.000000, 908.000000)">
                <g id="Social-Media" transform="translate(0.000000, 33.000000)">
                    <g id="instagram" transform="translate(253.000000, 24.000000)">
                        <g id="microsoft" transform="translate(14.000000, 14.000000) scale(1, -1) translate(-14.000000, -14.000000) ">
                            <path d="M15,13 L28,13 L28,0.866666667 C28,0.388266667 27.6117333,0 27.1333333,0 L15,0 L15,13 Z" id="Path" fill="#4CAF50"></path>
                            <path d="M13,13 L13,0 L0.866666667,0 C0.388266667,0 0,0.388266667 0,0.866666667 L0,13 L13,13 Z" id="Path" fill="#F44336"></path>
                            <path d="M13,15 L0,15 L0,27.1333333 C0,27.6117333 0.388266667,28 0.866666667,28 L13,28 L13,15 Z" id="Path" fill="#2196F3"></path>
                            <path d="M15,15 L15,28 L27.1333333,28 C27.6117333,28 28,27.6117333 28,27.1333333 L28,15 L15,15 Z" id="Path" fill="#FFC107"></path>
                        </g>
                    </g>
                </g>
            </g>
        </g>
    </g>
</svg>