<?xml version="1.0" encoding="UTF-8"?>
<svg width="20px" height="24px" viewBox="0 0 20 24" version="1.1" xmlns="http://www.w3.org/2000/svg" xmlns:xlink="http://www.w3.org/1999/xlink">
    <!-- Generator: Sketch 53.2 (72643) - https://sketchapp.com -->
    <title>linux logo</title>
    <desc>Created with Sketch.</desc>
    <defs>
        <linearGradient x1="21.0354859%" y1="-13.152923%" x2="112.482273%" y2="82.4748889%" id="linearGradient-1">
            <stop stop-color="#000000" stop-opacity="0.1" offset="0%"></stop>
            <stop stop-color="#000000" stop-opacity="0" offset="100%"></stop>
        </linearGradient>
        <linearGradient x1="24.7813217%" y1="12.7376908%" x2="95.6154879%" y2="81.7181806%" id="linearGradient-2">
            <stop stop-color="#000000" stop-opacity="0.1" offset="0%"></stop>
            <stop stop-color="#000000" stop-opacity="0" offset="100%"></stop>
        </linearGradient>
        <linearGradient x1="26.545324%" y1="41.9152337%" x2="88.4918253%" y2="76.5785854%" id="linearGradient-3">
            <stop stop-color="#FFFFFF" stop-opacity="0.2" offset="0%"></stop>
            <stop stop-color="#FFFFFF" stop-opacity="0" offset="100%"></stop>
        </linearGradient>
    </defs>
    <g id="Slides" stroke="none" stroke-width="1" fill="none" fill-rule="evenodd">
        <g id="Slide-1" transform="translate(-900.000000, -967.000000)" fill-rule="nonzero">
            <g id="Plaforms" transform="translate(437.000000, 908.000000)">
                <g id="Social-Media" transform="translate(0.000000, 33.000000)">
                    <g id="Youtube" transform="translate(463.000000, 24.000000)">
                        <g id="linux-logo" transform="translate(0.000000, 2.000000)">
                            <path d="M17.6811523,18.0336914 C17.8994141,17.5654297 18,16.9091797 18,16 C18,12.753418 16.5043945,10.8803711 15.3027344,9.375 C14.5751953,8.4633789 14,7.7431641 14,7 L14.0009766,6.7670898 C14.0087891,5.3867187 14.0249024,2.5136718 12.4990235,0.9790039 C11.8530273,0.3295898 11.012207,0 10,0 C7.8994141,0 6.5,1.0205078 6.5,6 C6.5,7.3706055 5.9233398,8.4931641 5.3129883,9.6816406 C5.0454102,10.2026367 4.7685547,10.7416992 4.5366211,11.3115234 C4.074707,12.4472656 3,15.2270508 3,16.5 C3,16.5810547 3.0195312,16.6606445 3.0571289,16.7324219 L6.5961914,23.4809571 C6.6723633,23.6259766 6.8173828,23.7207032 6.9799805,23.741211 C7,23.7436523 7.0200195,23.7451172 7.0400391,23.7451172 C7.1821289,23.7451172 7.3212891,23.6826172 7.4169922,23.5756836 C7.6391602,23.328125 9.1118164,23 10,23 L13.3920898,23 C13.5224609,23 13.6474609,22.9492188 13.7407226,22.8583984 L17.8486328,18.8583984 C18.046875,18.6655273 18.0507812,18.3491211 17.8583984,18.1513672 C17.8066406,18.0981445 17.7460938,18.059082 17.6811523,18.0336914 Z" id="Path" fill="#1A1A1A"></path>
                            <path d="M5.3129883,9.9316406 C5.9233398,8.7431641 6.5,7.6206055 6.5,6.25 C6.5,1.2705078 7.8994141,0.25 10,0.25 C11.012207,0.25 11.8530273,0.5795898 12.4990234,1.2290039 C13.8327636,2.5703735 13.9883422,4.9338989 14.0011596,6.4298096 C14.0020141,4.9626465 13.9143676,2.4025269 12.4990234,0.9790039 C11.8530273,0.3295898 11.012207,0 10,0 C7.8994141,0 6.5,1.0205078 6.5,6 C6.5,7.3706055 5.9233398,8.4931641 5.3129883,9.6816406 C5.0454102,10.2026367 4.7685547,10.7416992 4.5366211,11.3115234 C4.074707,12.4472656 3,15.2270508 3,16.5 C3,16.5227661 3.0130005,16.5428467 3.0160522,16.5652466 C3.100769,15.229126 4.0944213,12.6488648 4.536621,11.5615235 C4.7685547,10.9916992 5.0454102,10.4526367 5.3129883,9.9316406 Z" id="Path" fill="#FFFFFF" opacity="0.2"></path>
                            <path d="M17.8583984,18.4013672 C17.9204101,18.4651489 17.9545288,18.5424194 17.97583,18.6227417 C18.017517,18.4595337 17.9843139,18.2808228 17.8583984,18.1513672 C17.828125,18.1202393 17.7901611,18.104065 17.7548217,18.0825806 C17.7304076,18.1498413 17.7094726,18.2229004 17.6811523,18.2836914 C17.7460938,18.309082 17.8066406,18.3481445 17.8583984,18.4013672 Z" id="Path" fill="#0099D8"></path>
                            <path d="M14,7.25 C14,7.9931641 14.5751953,8.7133789 15.3027344,9.625 C16.4932251,11.116394 17.9677124,12.9729004 17.9950562,16.1643066 C17.9959106,16.107605 18,16.0587769 18,16 C18,12.753418 16.5043945,10.8803711 15.3027344,9.375 C14.5769654,8.4655762 14.0037842,7.746582 14.0009766,7.0053711 C14.0009766,7.0088501 14.0009766,7.0136108 14.0009766,7.0170899 L14,7.25 Z" id="Path" fill="#FFFFFF" opacity="0.2"></path>
                            <path d="M14,7 C14,7.0018311 14.0009766,7.00354 14.0009766,7.0053711 C14.0019532,6.8340454 14.0029297,6.6410523 14.0011597,6.4298096 C14.0010987,6.5443726 14.0015259,6.6671143 14.0009766,6.7670899 L14,7 Z" id="Path" fill="#0099D8"></path>
                            <path d="M14.1294117,16.8117638 C14.1174488,14.3771334 13.7866344,11.6384383 11.8627453,7.7058831 C10.9106579,8.3496204 9.1629019,8.8588243 8.952941,8.8588243 C8.574401,8.8588243 7.7479249,8.5886236 7.1406861,8.0525518 C6.8910523,8.789002 6.5454713,9.4708868 6.2026368,10.1386724 C5.9448243,10.6401372 5.6782227,11.1591802 5.463379,11.6884771 C4.8590089,13.1733404 4.1688233,15.1281133 4.0295411,16.1669317 C4.4525147,16.4487921 4.7474976,17.0587774 5.0732423,17.7402349 C5.4106446,18.4462896 5.7929689,19.2465826 6.2856446,19.5898443 C7.1871949,20.2175298 7.6546021,21.1128546 7.7770997,21.9263922 C8.1201783,21.9605109 8.5526124,21.990235 9.0439454,21.990235 C10.2638551,21.990235 11.9177266,21.7424933 13.1411763,21.0000006 C13.2098408,19.6772461 13.4421558,17.5555382 14.1294117,16.8117638 Z" id="Path" fill="#FFFFFF"></path>
                            <path d="M17.9950562,16.1643066 C17.9827881,16.9843139 17.885315,17.5957031 17.6811524,18.0336914 C17.7081299,18.0442505 17.7296753,18.0672607 17.7548218,18.0825806 C17.918396,17.6317139 18,17.0411987 18,16.25 C18,16.2199097 17.9953003,16.1941528 17.9950562,16.1643066 Z" id="Path" fill="#0099D8"></path>
                            <path d="M7.7770996,21.9263916 C8.1201782,21.9605103 8.5526123,21.9902344 9.0439453,21.9902344 C10.263855,21.9902344 11.9177246,21.7424927 13.1411743,21 L13.1411743,20.75 C11.9177246,21.4924927 10.263855,21.7402344 9.0439453,21.7402344 C8.5526123,21.7402344 8.0446415,21.7059937 7.7015629,21.671875" id="Path" fill="#000000" opacity="0.1"></path>
                            <path d="M13.7438536,22.6083984 C13.6505919,22.6992188 13.5255919,22.75 13.3952208,22.75 L10.003131,22.75 C9.1149474,22.75 7.6422912,23.078125 7.4201232,23.3256836 C7.32442,23.4326172 7.1852598,23.4951172 7.04317,23.4951172 C7.0231505,23.4951172 7.0031309,23.4936524 6.9831114,23.491211 C6.8205137,23.4707032 6.6754942,23.3759766 6.5993223,23.2309571 L3.0602598,16.4824219 C3.0332212,16.4307862 3.0269956,16.3725586 3.0191831,16.3152466 C3.015399,16.3747559 3.0031309,16.4457397 3.0031309,16.5 C3.0031309,16.5810547 3.0226621,16.6606445 3.0602598,16.7324219 L6.5993223,23.4809571 C6.6754942,23.6259766 6.8205137,23.7207032 6.9831114,23.741211 C7.0031309,23.7436524 7.0231505,23.7451172 7.04317,23.7451172 C7.1852598,23.7451172 7.32442,23.6826172 7.4201231,23.5756836 C7.6422911,23.328125 9.1149473,23 10.0031309,23 L13.3952207,23 C13.5255918,23 13.6505918,22.9492188 13.7438535,22.8583984 L17.8517627,18.8583984 C17.9861011,18.7277221 18.0236987,18.5415039 17.97896,18.3727417 C17.9569263,18.4588623 17.9202442,18.5418091 17.8517627,18.6083984 L13.7438536,22.6083984 Z" id="Path" fill="#000000" opacity="0.3"></path>
                            <path d="M18.9262695,19.0742188 C18.7192383,18.9384766 18.5048828,18.7978516 18.3535156,18.6464844 C18.2651367,18.5581055 18.305664,18.1494141 18.3271484,17.9296875 C18.3686523,17.5078125 18.4116211,17.0722656 18.1279296,16.7592773 C18.0209961,16.6411133 17.824707,16.5 17.5,16.5 C17.2324219,16.5 17.0371094,16.7119141 17.0253906,16.9790039 C17.0250854,16.9862671 17.0280762,16.9927979 17.0280762,17 L15,17 C15,16.7236328 14.7763672,16.5 14.5,16.5 C13.0170898,16.5 13,21.9448242 12.9941406,22.0639648 C12.9663086,22.3623046 12.9008789,23.0620117 13.3486328,23.5532226 C13.6186523,23.8496094 14.0058594,24 14.5,24 C15.7978516,24 16.4272461,23.3310547 17.0356445,22.6845703 C17.1381836,22.5751953 17.243164,22.4638672 17.3535156,22.3535156 C17.6069336,22.1000976 18.102539,21.9194336 18.540039,21.7597656 C19.2578125,21.4975586 20,21.2265625 20,20.5 C20,19.7788086 19.4047852,19.3881836 18.9262695,19.0742188 Z" id="Path" fill="#FDB515"></path>
                            <path d="M6.2856445,19.5898438 C5.7929687,19.2465821 5.4106445,18.4462891 5.0732422,17.7402344 C4.6269531,16.8066406 4.2412109,16 3.5,16 C2.5644531,16 2.3598633,16.8408203 2.2504883,17.2924805 C2.2202149,17.4169922 2.1743164,17.6044922 2.1699219,17.6264649 C2.0957031,17.6723633 1.8164063,17.7275391 1.631836,17.7641602 C1.0214844,17.8852539 0,18.0874023 0,19 C0,19.265625 0.0395508,19.4912109 0.0830078,19.7260742 C0.1601562,20.1420898 0.2329102,20.534668 0.0161133,21.375 C0.0053711,21.4155273 0,21.4580078 0,21.5 C0,22.7021484 1.8671875,22.8579102 2.9829102,22.9506836 C3.1684571,22.9663086 3.322754,22.9780274 3.421875,22.9936524 C3.5756836,23.0180665 3.8979492,23.166504 4.2094727,23.3100586 C4.8759766,23.6176758 5.7055664,24 6.5,24 C7.0712891,24 7.5283203,23.6308594 7.7226562,23.0126953 C8.0249023,22.0493164 7.6245117,20.5219727 6.2856445,19.5898438 Z" id="Path" fill="#FDB515"></path>
                            <path d="M1.5531006,18.0141602 C1.7440186,17.9775391 2.03302,17.9223633 2.1098023,17.8764649 C2.1143189,17.8544922 2.1618043,17.6669922 2.1931153,17.5424805 C2.3062744,17.0908203 2.5179443,16.25 3.4858398,16.25 C4.2526855,16.25 4.6517944,17.0566406 5.1135253,17.9902344 C5.4625854,18.6962891 5.8581542,19.4965821 6.3678588,19.8398438 C6.8756103,20.1815186 7.2502441,20.6038819 7.5090942,21.0484009 C7.2623901,20.5136109 6.8675537,19.9949341 6.2856445,19.5898438 C5.7929687,19.2465821 5.4106445,18.4462891 5.0732422,17.7402344 C4.6269531,16.8066406 4.2412109,16 3.5,16 C2.5644531,16 2.3598633,16.8408203 2.2504883,17.2924805 C2.2202149,17.4169922 2.1743164,17.6044922 2.1699219,17.6264649 C2.0957031,17.6723633 1.8164063,17.7275391 1.631836,17.7641602 C1.1017457,17.8693238 0.2634278,18.0369263 0.0515748,18.6767579 C0.3828125,18.2400513 1.0843506,18.1040649 1.5531006,18.0141602 Z" id="Path" fill="#FFFFFF" opacity="0.2"></path>
                            <path d="M17.5,15.5 C17.4041748,15.5 17.3198242,15.5340576 17.2437744,15.5806885 L13.9051514,10.1174927 C13.5405884,9.0874634 13.0742188,7.994812 12.444336,6.7709961 C12.3183594,6.5263672 12.0170899,6.4291992 11.7709962,6.5551758 C11.525879,6.6816406 11.4291993,6.9833985 11.5556642,7.2290039 C13.8129884,11.6157227 14.0000001,14.3540039 14.0009767,16.972168 C13.9951173,17.0771485 13.9594728,18.0136719 14.498047,18.5834961 C14.7558594,18.855957 15.1020508,19 15.5,19 L15.6762695,19.0009766 C15.7324218,19.0014649 15.7890625,19.0019532 15.8466797,19.0019532 C16.3549805,19.0019532 16.9047852,18.963379 17.3349609,18.5366212 C17.7949219,18.0805664 18,17.2983398 18,16 C18,15.7236328 17.7763672,15.5 17.5,15.5 Z" id="Path" fill="#1A1A1A"></path>
                            <path d="M17.3349609,18.2866211 C16.9047851,18.7133789 16.3549804,18.7519531 15.8466797,18.7519531 C15.7890625,18.7519531 15.7324219,18.7514648 15.6762695,18.7509765 L15.5,18.75 C15.1020508,18.75 14.7558594,18.605957 14.4980469,18.3334961 C14.0947876,17.9068604 14.0134888,17.2749023 14.0005493,16.9400635 C14.0005493,16.9506836 14.0009765,16.9615479 14.0009765,16.972168 C13.9951171,17.0771485 13.9594726,18.0136719 14.4980468,18.5834961 C14.7558594,18.855957 15.1020508,19 15.5,19 L15.6762695,19.0009766 C15.7324218,19.0014649 15.7890625,19.0019532 15.8466797,19.0019532 C16.3549805,19.0019532 16.9047852,18.963379 17.3349609,18.5366212 C17.7949219,18.0805664 18,17.2983398 18,16 C18,15.9839478 17.9923096,15.9703979 17.9908447,15.9547119 C17.9682007,17.121521 17.7681885,17.8571167 17.3349609,18.2866211 Z" id="Path" fill="#000000" opacity="0.3"></path>
                            <path d="M11,3.0415039 C10.4204102,3.0415039 10,3.6635742 10,4.5209961 C10,5.3779297 10.4204102,6 11,6 C11.5795898,6 12,5.3779297 12,4.5209961 C12,3.6635742 11.5795898,3.0415039 11,3.0415039 Z" id="Path" fill="#FFFFFF"></path>
                            <ellipse id="Oval" fill="#000000" cx="11" cy="4.8882351" rx="1" ry="1"></ellipse>
                            <path d="M8,3.0415039 C7.4204102,3.0415039 7,3.6635742 7,4.5209961 C7,5.3779297 7.4204102,6 8,6 C8.5795898,6 9,5.3779297 9,4.5209961 C9,3.6635742 8.5795898,3.0415039 8,3.0415039 Z" id="Path" fill="#FFFFFF"></path>
                            <path d="M11.8018799,7.7424927 C10.8388062,8.3684082 9.1588135,8.8588257 8.9529419,8.8588257 C8.5744019,8.8588257 7.7479248,8.5886231 7.140686,8.0525513 L13.9222412,14.8341065 C13.7612305,12.8980713 13.253479,10.6957397 11.8018799,7.7424927 Z" id="Path" fill="url(#linearGradient-1)"></path>
                            <ellipse id="Oval" fill="#000000" cx="8" cy="4.8705883" rx="1" ry="1"></ellipse>
                            <path d="M9.5981445,5.0097656 C9.565918,5.003418 9.5327148,5 9.5,5 C8.4248047,5 6.5,6.0083008 6.5,7 C6.5,7.9370117 8.3911133,9 9,9 C9.2954102,9 12.5,7.887207 12.5,7 C12.5,5.6918945 10.2788086,5.1459961 9.5981445,5.0097656 Z" id="Path" fill="#FDB515"></path>
                            <path d="M9.5981445,5.0097656 C9.565918,5.003418 9.5327148,5 9.5,5 C8.4248047,5 6.5,6.0083008 6.5,7 C6.5,7.9370117 8.3911133,9 9,9 C9.2954102,9 12.5,7.887207 12.5,7 C12.5,5.6918945 10.2788086,5.1459961 9.5981445,5.0097656 Z" id="Path" fill="#FDB515"></path>
                            <path d="M18.5400391,21.5097656 C18.1025391,21.6694336 17.6069336,21.8500976 17.3535157,22.1035156 C17.2431641,22.2138672 17.1381837,22.3251953 17.0356446,22.4345703 C16.4272461,23.0810547 15.7978516,23.75 14.5,23.75 C14.0058594,23.75 13.6186523,23.5996094 13.3486328,23.3032227 C13.0554809,22.9816285 12.989563,22.5785523 12.9818115,22.2493897 C12.9602051,22.5947876 12.9725952,23.1406861 13.3486328,23.5532227 C13.6186523,23.8496094 14.0058594,24 14.5,24 C15.7978516,24 16.4272461,23.3310547 17.0356445,22.6845703 C17.1381836,22.5751953 17.243164,22.4638672 17.3535156,22.3535156 C17.6069336,22.1000976 18.102539,21.9194336 18.540039,21.7597656 C19.2578125,21.4975586 20,21.2265625 20,20.5 C20,20.4637451 19.9827271,20.437561 19.9797974,20.4029541 C19.8798218,21.0128784 19.2033691,21.2674561 18.5400391,21.5097656 Z" id="Path" fill="#000000" opacity="0.1"></path>
                            <path d="M7.7226562,22.7626953 C7.5283203,23.3808594 7.0712891,23.75 6.5,23.75 C5.7055664,23.75 4.8759766,23.3676758 4.2094727,23.0600586 C3.8979493,22.9165039 3.5756836,22.7680664 3.421875,22.7436524 C3.3227539,22.7280274 3.168457,22.7163086 2.9829102,22.7006836 C1.9024048,22.6108398 0.1324463,22.453125 0.020813,21.3519287 C0.0186157,21.3605957 0.0183716,21.366272 0.0161133,21.375 C0.0053711,21.4155273 0,21.4580078 0,21.5 C0,22.7021484 1.8671875,22.8579102 2.9829102,22.9506836 C3.1684571,22.9663086 3.322754,22.9780274 3.421875,22.9936524 C3.5756836,23.0180665 3.8979492,23.166504 4.2094727,23.3100586 C4.8759766,23.6176758 5.7055664,24 6.5,24 C7.0712891,24 7.5283203,23.6308594 7.7226562,23.0126953 C7.8016967,22.7607422 7.8296508,22.4692993 7.8083496,22.1609497 C7.8029175,22.375061 7.7796631,22.5809326 7.7226562,22.7626953 Z" id="Path" fill="#000000" opacity="0.1"></path>
                            <path d="M8.9890747,8.75 C8.4285889,8.75 6.8178101,7.8687744 6.5013428,6.9940186 C6.5013428,6.9960327 6.5,6.9979858 6.5,7 C6.5,7.9370117 8.3911133,9 9,9 C9.2954102,9 12.5,7.887207 12.5,7 C12.5,6.9806519 12.489502,6.9650879 12.4885254,6.9460449 C12.0139771,7.8013306 9.2648315,8.75 8.9890747,8.75 Z" id="Path" fill="#000000" opacity="0.1"></path>
                            <path d="M18.9262695,19.0742188 C18.7192383,18.9384766 18.5048828,18.7978516 18.3535156,18.6464844 C18.2651367,18.5581055 18.305664,18.1494141 18.3271484,17.9296875 C18.3686523,17.5078125 18.4116211,17.0722656 18.1279296,16.7592773 C18.0916747,16.7191772 18.0338134,16.6815795 17.9711913,16.6463012 C17.9083251,17.5567016 17.7104491,18.1643066 17.3349608,18.536621 C16.904785,18.9633788 16.3549803,19.001953 15.8466796,19.001953 C15.7890624,19.001953 15.7324218,19.0014647 15.6762694,19.0009764 L15.5,19 C15.1020508,19 14.7558594,18.855957 14.4980469,18.5834961 L17.9188233,22.0042725 C18.1184693,21.914917 18.335022,21.8345948 18.5400391,21.7597657 C19.2578125,21.4975586 20,21.2265625 20,20.5 C20,19.7788086 19.4047852,19.3881836 18.9262695,19.0742188 Z" id="Path" fill="url(#linearGradient-2)"></path>
                            <path d="M18.9262695,19.0742188 C18.7192383,18.9384766 18.5048828,18.7978516 18.3535156,18.6464844 C18.2651367,18.5581055 18.305664,18.1494141 18.3271484,17.9296875 C18.3686523,17.5078125 18.4116211,17.0722656 18.1279296,16.7592773 C18.0937499,16.7215576 18.033203,16.6851806 17.9795531,16.6481323 C17.992981,16.4475708 18,16.2325439 18,16 C18,12.753418 16.5043945,10.8803711 15.3027344,9.375 C14.5751953,8.4633789 14,7.7431641 14,7 L14.0009766,6.7670898 C14.0087891,5.3867187 14.0249024,2.5136718 12.4990235,0.9790039 C11.8530273,0.3295898 11.012207,0 10,0 C7.8994141,0 6.5,1.0205078 6.5,6 C6.5,7.3706055 5.9233398,8.4931641 5.3129883,9.6816406 C5.0454102,10.2026367 4.7685547,10.7416992 4.5366211,11.3115234 C4.1178589,12.3411865 3.2037964,14.7107544 3.0351563,16.0950927 C2.49469,16.3225097 2.338379,16.9296264 2.2504883,17.2924804 C2.2202149,17.4169921 2.1743164,17.6044921 2.1699219,17.6264648 C2.0957031,17.6723632 1.8164063,17.727539 1.631836,17.7641601 C1.0214844,17.8852539 0,18.0874023 0,19 C0,19.265625 0.0395508,19.4912109 0.0830078,19.7260742 C0.1601562,20.1420898 0.2329102,20.534668 0.0161133,21.375 C0.0053711,21.4155273 0,21.4580078 0,21.5 C0,22.7021484 1.8671875,22.8579102 2.9829102,22.9506836 C3.1684571,22.9663086 3.322754,22.9780274 3.421875,22.9936524 C3.5756836,23.0180665 3.8979492,23.166504 4.2094727,23.3100586 C4.8759766,23.6176758 5.7055664,24 6.5,24 C6.8419189,24 7.133728,23.8545532 7.3619385,23.6158447 C7.3793946,23.6010132 7.4016114,23.5928955 7.4169922,23.5756836 C7.6391602,23.328125 9.1118164,23 10,23 L13.0606689,23 C13.1157836,23.192749 13.1951904,23.3848877 13.3486328,23.5532227 C13.6186523,23.8496094 14.0058594,24 14.5,24 C15.7978516,24 16.4272461,23.3310547 17.0356445,22.6845703 C17.1381836,22.5751953 17.243164,22.4638672 17.3535156,22.3535156 C17.6069336,22.1000976 18.102539,21.9194336 18.540039,21.7597656 C19.2578125,21.4975586 20,21.2265625 20,20.5 C20,19.7788086 19.4047852,19.3881836 18.9262695,19.0742188 Z" id="Path" fill="url(#linearGradient-3)"></path>
                        </g>
                    </g>
                </g>
            </g>
        </g>
    </g>
</svg>