<?xml version="1.0" encoding="UTF-8"?>
<svg width="18px" height="23px" viewBox="0 0 18 23" version="1.1" xmlns="http://www.w3.org/2000/svg" xmlns:xlink="http://www.w3.org/1999/xlink">
    <!-- Generator: Sketch 53.2 (72643) - https://sketchapp.com -->
    <title>apple-logo</title>
    <desc>Created with Sketch.</desc>
    <g id="Slides" stroke="none" stroke-width="1" fill="none" fill-rule="evenodd">
        <g id="Slide-1" transform="translate(-487.000000, -966.000000)" fill="#FFFFFF" fill-rule="nonzero">
            <g id="Plaforms" transform="translate(437.000000, 908.000000)">
                <g id="Social-Media" transform="translate(0.000000, 33.000000)">
                    <g id="Apple" transform="translate(33.000000, 23.000000)">
                        <g id="apple-logo" transform="translate(17.000000, 2.000000)">
                            <path d="M18,16.8925314 C17.9402356,17.0672462 17.8823388,17.254855 17.8157264,17.4392403 C17.2641505,18.985885 16.4268261,20.3591043 15.4108309,21.6175663 C15.2147289,21.8625538 14.9862544,22.0843319 14.7503095,22.2899924 C14.2840225,22.6987347 13.7473878,22.9456563 13.1267093,22.9682209 C12.6604223,22.9836938 12.2128117,22.8960141 11.7813872,22.7142076 C11.4688691,22.5820433 11.1613314,22.4344061 10.8444554,22.3151359 C9.81600928,21.9283136 8.79316608,21.9792452 7.7815287,22.3931451 C7.4167167,22.5427164 7.05688507,22.7077606 6.68522506,22.837346 C6.25442318,22.9869173 5.80743509,23.0475195 5.35235391,22.9585504 C4.95516952,22.8818306 4.60778881,22.6903536 4.28530994,22.443432 C3.88501281,22.1365529 3.54883793,21.7626246 3.23445216,21.3667765 C1.74594449,19.4868199 0.74675804,17.3612312 0.264284831,14.9803397 C0.0563544413,13.9565499 -0.0432529309,12.924379 0.0177565846,11.8780245 C0.0893493834,10.6234308 0.37074021,9.42879445 1.01818813,8.35213895 C1.83061076,6.99890547 2.97671809,6.11243762 4.48452468,5.74689051 C5.39157432,5.52575708 6.27372211,5.61601562 7.13843861,5.9609322 C7.59351979,6.1414493 8.04984606,6.32003227 8.50679488,6.49732584 C8.92763603,6.66108063 9.34660954,6.66108063 9.76807323,6.49410233 C10.2343602,6.30971701 10.7012698,6.1259764 11.1694245,5.94610402 C11.6494075,5.76494222 12.1374836,5.61666033 12.6467263,5.57475457 C13.4087227,5.51092889 14.1520427,5.61343681 14.8754412,5.86422662 C15.9007746,6.21945847 16.7349864,6.84804476 17.365003,7.76352429 C17.3818117,7.78866774 17.4004881,7.81639001 17.4129391,7.83637583 C15.8242015,8.98330406 14.919642,10.4983582 15.0509992,12.549806 C15.1836016,14.6025432 16.2506455,15.9912354 18,16.8925314 Z M9.08825292,5.32074124 C9.55703011,5.33363532 10.0077535,5.24015325 10.4416681,5.06157027 C12.4207421,4.24795396 13.4554136,2.07981476 13.4242863,0.421636347 C13.4217962,0.288182641 13.4130805,0.154728935 13.4074776,0 C13.203905,0.0315904908 13.0183863,0.0464186804 12.8403381,0.0928373608 C11.3954087,0.459673877 10.2835414,1.29456542 9.55267229,2.64650949 C9.12498314,3.43820587 8.88717053,4.27889975 8.96000843,5.19760279 C8.96498879,5.29495308 8.99922883,5.31945183 9.08825292,5.32074124 Z" id="Shape"></path>
                        </g>
                    </g>
                </g>
            </g>
        </g>
    </g>
</svg>